<svg preserveAspectRatio="none" overflow="visible" style="display: block;" width="36" height="34.8749" viewBox="0 0 36 34.8749" fill="none" xmlns="http://www.w3.org/2000/svg">
<path id="Union" d="M18 2.13184C19.7644 2.13192 21.6669 2.96246 23.7187 4.77734C25.7699 6.59165 27.8099 9.25287 29.7891 12.5527C31.7539 15.8287 33.0672 18.8985 33.6006 21.543C34.135 24.1922 33.8483 26.1913 32.9346 27.6084C31.9521 29.1319 30.1747 30.427 27.5703 31.3447C25.1381 32.2018 22.1138 32.6807 18.6904 32.7373L18 32.7432C14.2925 32.7431 11.0241 32.2589 8.42969 31.3447C5.8253 30.4269 4.04787 29.1319 3.06543 27.6084C2.15174 26.1913 1.86501 24.1922 2.39941 21.543C2.93284 18.8985 4.24611 15.8287 6.21094 12.5527C8.18999 9.25311 10.2293 6.59168 12.2803 4.77734C14.3321 2.96227 16.2355 2.13184 18 2.13184Z" stroke="white" stroke-width="4.26379"/>
</svg>
