<svg preserveAspectRatio="none" overflow="visible" style="display: block;" width="33.4876" height="48.0735" viewBox="0 0 33.4876 48.0735" fill="none" xmlns="http://www.w3.org/2000/svg">
<g id="Vector">
<path id="6" d="M28.3239 33.2465C27.4966 36.2075 26.2555 38.8202 24.6008 41.0845C22.9461 43.3053 20.9866 45.0253 18.7223 46.2446C16.458 47.4638 13.9977 48.0735 11.3414 48.0735C8.51103 48.0735 6.22493 47.4638 4.48313 46.2446C2.74134 45.0253 1.50032 43.2835 0.760055 41.0192C0.0633379 38.7549 -0.154386 36.0769 0.106883 32.9852C0.368151 29.8935 1.0431 26.4535 2.13172 22.6651C3.17679 18.9638 4.37427 15.6979 5.72416 12.8675C7.07405 10.0371 8.57635 7.68566 10.231 5.81323C11.9293 3.89726 13.8017 2.46028 15.8483 1.5023C17.8949 0.500766 20.181 0 22.7066 0C25.3193 0 27.4095 0.544309 28.9771 1.63293C30.5447 2.72155 31.6986 4.13675 32.4389 5.87855C33.1792 7.57679 33.5275 9.42745 33.484 11.4305L21.9228 15.6108C22.1405 13.5642 22.1623 12.0184 21.9881 10.9733C21.8575 9.92821 21.4003 9.40568 20.6165 9.40568C19.6585 9.40568 18.6134 10.7773 17.4813 13.5207C16.3926 16.2204 15.0863 20.1612 13.5622 25.3431C12.5171 28.9137 11.7987 31.6788 11.4068 33.6384C11.0584 35.5543 10.9495 36.8824 11.0802 37.6227C11.2544 38.3194 11.5592 38.6678 11.9946 38.6678C12.5171 38.6678 12.9961 38.4283 13.4316 37.9493C13.867 37.4268 14.2807 36.7083 14.6726 35.7938C15.1081 34.8358 15.5 33.7254 15.8483 32.4626C16.2402 31.1563 16.458 30.0459 16.5015 29.1315C16.545 28.217 16.4362 27.5203 16.1749 27.0413C15.9136 26.5188 15.5 26.2575 14.9339 26.2575C14.4549 26.2575 13.9324 26.3664 13.3663 26.5841C12.8437 26.8018 12.4301 27.0849 12.1252 27.4332L12.0599 20.7056C12.626 20.1395 13.301 19.6169 14.0848 19.1379C14.9121 18.6154 15.8701 18.2017 16.9587 17.8969C18.0473 17.5486 19.2666 17.3744 20.6165 17.3744C22.7066 17.3744 24.492 18.0058 25.9725 19.2686C27.4966 20.5314 28.4981 22.3603 28.9771 24.7552C29.4996 27.1066 29.2819 29.9371 28.3239 33.2465Z" fill="black" fill-opacity="0.9"/>
</g>
</svg>
