<svg preserveAspectRatio="none" overflow="visible" style="display: block;" width="8.65636" height="11.3368" viewBox="0 0 8.65636 11.3368" fill="none" xmlns="http://www.w3.org/2000/svg">
<g id="Shape">
<path id="Digit 2" d="M5.43416 2.21739C5.2676 2.21739 5.09583 2.35272 4.91885 2.62339C4.74188 2.88365 4.53888 3.31047 4.30985 3.90385L2.21739 2.96693C2.38395 2.60257 2.58175 2.24341 2.81077 1.88946C3.05021 1.53551 3.32608 1.218 3.63839 0.936924C3.96111 0.645437 4.33067 0.416411 4.74708 0.249846C5.1635 0.083282 5.64237 0 6.1837 0C7.17268 0 7.87537 0.301898 8.29178 0.905693C8.7186 1.50949 8.77066 2.33711 8.44794 3.38854C8.35424 3.72167 8.18248 4.08083 7.93263 4.46601C7.69319 4.85119 7.38609 5.26239 7.01132 5.69962C6.64696 6.12645 6.22534 6.5845 5.74647 7.07378C5.2676 7.55265 4.74188 8.06276 4.16931 8.60409C3.60716 9.13502 3.00857 9.69197 2.37354 10.2749L1.78016 8.90078H6.94886L6.24616 11.3368H0L0.655847 9.04132C1.25964 8.43753 1.80098 7.9014 2.27985 7.43294C2.76913 6.95406 3.19595 6.51683 3.56031 6.12124C3.92467 5.72565 4.23698 5.35609 4.49724 5.01255C4.76791 4.6586 4.99173 4.31506 5.1687 3.98193C5.34568 3.6488 5.48621 3.30526 5.59032 2.95131C5.64237 2.74311 5.66319 2.57134 5.65278 2.436C5.64237 2.29026 5.5695 2.21739 5.43416 2.21739Z" fill="black" fill-opacity="0.9"/>
</g>
</svg>
